# xmcd
#
# Track frame offsets:
#	150
#	10063
#	23014
#	36114
#	47043
#	56508
#	58545
#	59215
#
# Disc length: 794 seconds
#
# Revision: 1
# Processed by: cddbd v1.5.2PL0 Copyright (c) Steve Scherf et al.
# Submitted via: audiograbber 1.83.01
#
DISCID=65031808
DTITLE=Detroit Punxxx - Hände Hoch!
DYEAR=2002
DGENRE=Punk
TTITLE0=Kellerkind
TTITLE1=Hände Hoch!
TTITLE2=Boeses Maedchen
TTITLE3=Metallmuschis
TTITLE4=Nicht ganz allein
TTITLE5=Fette Beats und Fette Reime
TTITLE6=Die Liebe
TTITLE7=Haende Runter!
EXTD=
EXTT0=
EXTT1=
EXTT2=
EXTT3=
EXTT4=
EXTT5=
EXTT6=
EXTT7=
PLAYORDER=
